<svg width="32" height="32" viewBox="0 0 32 32" fill="none" xmlns="http://www.w3.org/2000/svg">
<g id="logos:facebook" clip-path="url(#clip0_66_199)">
<path id="Vector" d="M31.629 15.8145C31.629 7.08044 24.5485 0 15.8145 0C7.08044 0 0 7.08044 0 15.8145C0 23.7079 5.78316 30.2505 13.3435 31.4369V20.3859H9.32808V15.8145H13.3435V12.3304C13.3435 8.36685 15.7045 6.17754 19.3169 6.17754C21.0471 6.17754 22.8569 6.48641 22.8569 6.48641V10.3783H20.8628C18.8982 10.3783 18.2855 11.5973 18.2855 12.848V15.8145H22.6716L21.9704 20.3859H18.2855V31.4369C25.8458 30.2505 31.629 23.708 31.629 15.8145Z" fill="black"/>
<path id="Vector_2" d="M21.9705 20.3859L22.6716 15.8145H18.2856V12.8481C18.2856 11.5972 18.8982 10.3783 20.8628 10.3783H22.8569V6.48643C22.8569 6.48643 21.0472 6.17755 19.3168 6.17755C15.7046 6.17755 13.3435 8.36687 13.3435 12.3304V15.8145H9.32812V20.3859H13.3435V31.4369C14.161 31.565 14.9871 31.6292 15.8145 31.629C16.642 31.6292 17.4681 31.565 18.2856 31.4369V20.3859H21.9705Z" fill="white"/>
</g>
<defs>
<clipPath id="clip0_66_199">
<rect width="31.629" height="31.629" fill="white"/>
</clipPath>
</defs>
</svg>
