<svg width="28" height="32" viewBox="0 0 28 32" fill="none" xmlns="http://www.w3.org/2000/svg">
<g id="logos:tiktok-icon" clip-path="url(#clip0_66_215)">
<path id="Vector" d="M20.695 11.3888C22.7322 12.8442 25.2278 13.7006 27.9231 13.7006V8.51673C27.413 8.51684 26.9042 8.46362 26.4051 8.35793V12.4384C23.71 12.4384 21.2147 11.5821 19.1772 10.1268V20.7057C19.1772 25.9979 14.8848 30.2876 9.59031 30.2876C7.6148 30.2876 5.77858 29.6907 4.2533 28.6669C5.9942 30.4461 8.422 31.5497 11.1078 31.5497C16.4028 31.5497 20.6952 27.26 20.6952 21.9676V11.3888H20.695ZM22.5677 6.15885C21.5265 5.02206 20.8429 3.55294 20.695 1.92874V1.26202H19.2566C19.6187 3.32631 20.8538 5.0899 22.5677 6.15885ZM7.60204 24.606C7.02039 23.8438 6.70597 22.9112 6.70738 21.9524C6.70738 19.532 8.67067 17.5695 11.0929 17.5695C11.5442 17.5693 11.9929 17.6385 12.4232 17.7749V12.475C11.9204 12.4062 11.413 12.3769 10.9059 12.3877V16.5128C10.4754 16.3763 10.0265 16.3071 9.57493 16.3075C7.1528 16.3075 5.18962 18.2698 5.18962 20.6905C5.18962 22.4022 6.17088 23.8841 7.60204 24.606Z" fill="white"/>
<path id="Vector_2" d="M19.1772 10.1266C21.2148 11.582 23.7099 12.4383 26.4052 12.4383V8.35782C24.9007 8.0375 23.5689 7.25179 22.5676 6.15885C20.8536 5.08979 19.6187 3.3262 19.2566 1.26202H15.4782V21.9673C15.4696 24.3812 13.5097 26.3356 11.0927 26.3356C9.66852 26.3356 8.40314 25.6571 7.60183 24.6059C6.17089 23.8841 5.18952 22.4021 5.18952 20.6906C5.18952 18.2701 7.1527 16.3076 9.57483 16.3076C10.0389 16.3076 10.4862 16.3798 10.9058 16.5129V12.3878C5.7042 12.4952 1.521 16.7431 1.521 21.9674C1.521 24.5754 2.56268 26.9396 4.25341 28.6671C5.77869 29.6907 7.61481 30.2878 9.59042 30.2878C14.885 30.2878 19.1773 25.9977 19.1773 20.7057V10.1268L19.1772 10.1266Z" fill="black"/>
<path id="Vector_3" d="M26.4051 8.35769V7.2546C25.0484 7.25665 23.7185 6.87692 22.5675 6.15882C23.5864 7.2737 24.928 8.04252 26.4051 8.35791V8.35769ZM19.2564 1.26189C19.2219 1.06465 19.1954 0.866101 19.177 0.666717V0H13.9599V20.7055C13.9517 23.1192 11.9917 25.0736 9.57464 25.0736C8.88941 25.0746 8.21354 24.9145 7.60164 24.606C8.40295 25.6571 9.66833 26.3355 11.0925 26.3355C13.5094 26.3355 15.4695 24.3813 15.478 21.9674V1.262H19.2564V1.26189ZM10.9059 12.3877V11.2131C10.4699 11.1535 10.0304 11.1237 9.59045 11.1239C4.29532 11.1239 0.00305176 15.4139 0.00305176 20.7055C0.00305176 24.0232 1.68997 26.947 4.25344 28.6669C2.56271 26.9395 1.52103 24.5752 1.52103 21.9673C1.52103 16.7431 5.70412 12.4951 10.9059 12.3877Z" fill="black"/>
</g>
<defs>
<clipPath id="clip0_66_215">
<rect width="27.927" height="31.629" fill="white"/>
</clipPath>
</defs>
</svg>
