<svg width="32" height="32" viewBox="0 0 32 32" fill="none" xmlns="http://www.w3.org/2000/svg">
<g id="logos:whatsapp-icon" clip-path="url(#clip0_66_202)">
<path id="Vector" d="M0.670094 15.6252C0.669358 18.2826 1.36373 20.8775 2.68405 23.1645L0.543823 30.9789L8.54081 28.882C10.7527 30.0862 13.2309 30.7171 15.7493 30.7173H15.7559C24.0695 30.7173 30.837 23.9522 30.8406 15.6371C30.8422 11.6078 29.2745 7.81897 26.4261 4.96844C23.5783 2.11815 19.7908 0.547615 15.7553 0.545776C7.44066 0.545776 0.673649 7.31046 0.670217 15.6252" fill="black"/>
<path id="Vector_2" d="M11.8524 9.09003C11.5599 8.43991 11.2521 8.4268 10.9739 8.4154C10.7461 8.40559 10.4857 8.40632 10.2256 8.40632C9.96521 8.40632 9.54214 8.50428 9.18454 8.89473C8.82657 9.28556 7.81787 10.23 7.81787 12.1509C7.81787 14.072 9.21702 15.9284 9.41207 16.1891C9.60736 16.4494 12.1132 20.5175 16.0817 22.0826C19.38 23.3831 20.0512 23.1245 20.767 23.0592C21.4829 22.9943 23.0771 22.115 23.4024 21.2033C23.7279 20.2917 23.7279 19.5103 23.6303 19.347C23.5327 19.1843 23.2723 19.0866 22.8818 18.8915C22.4913 18.6962 20.5717 17.7516 20.2139 17.6213C19.8559 17.4911 19.5956 17.4261 19.3352 17.8171C19.0748 18.2074 18.3272 19.0866 18.0993 19.347C17.8716 19.608 17.6437 19.6405 17.2534 19.4452C16.8627 19.2493 15.6052 18.8375 14.1134 17.5075C12.9527 16.4726 12.1691 15.1945 11.9413 14.8036C11.7135 14.4133 11.9169 14.2017 12.1127 14.0071C12.2881 13.8322 12.5033 13.5512 12.6987 13.3233C12.8933 13.0953 12.9583 12.9326 13.0885 12.6722C13.2188 12.4116 13.1536 12.1835 13.0561 11.9882C12.9583 11.793 12.1996 9.86199 11.8524 9.09003Z" fill="white"/>
</g>
<defs>
<clipPath id="clip0_66_202">
<rect width="31.3846" height="31.629" fill="white"/>
</clipPath>
</defs>
</svg>
