<svg width="32" height="32" viewBox="0 0 32 32" fill="none" xmlns="http://www.w3.org/2000/svg">
<g id="skill-icons:instagram" clip-path="url(#clip0_66_209)">
<g id="Group">
<path id="Vector" d="M24.2159 0H7.41304C3.31893 0 0 3.31893 0 7.41304V24.2159C0 28.3101 3.31893 31.629 7.41304 31.629H24.2159C28.3101 31.629 31.629 28.3101 31.629 24.2159V7.41304C31.629 3.31893 28.3101 0 24.2159 0Z" fill="url(#paint0_radial_66_209)"/>
<path id="Vector_2" d="M24.2159 0H7.41304C3.31893 0 0 3.31893 0 7.41304V24.2159C0 28.3101 3.31893 31.629 7.41304 31.629H24.2159C28.3101 31.629 31.629 28.3101 31.629 24.2159V7.41304C31.629 3.31893 28.3101 0 24.2159 0Z" fill="black"/>
<path id="Vector_3" d="M15.8157 3.45941C12.4603 3.45941 12.0391 3.47411 10.7213 3.53404C9.40597 3.59433 8.50813 3.80251 7.72259 4.10805C6.90987 4.4236 6.22058 4.84577 5.53389 5.53272C4.84658 6.21953 4.4244 6.90882 4.10787 7.72117C3.80146 8.50695 3.59303 9.40517 3.53385 10.7199C3.47492 12.0378 3.45947 12.4591 3.45947 15.8146C3.45947 19.1701 3.4743 19.5899 3.5341 20.9077C3.59464 22.2231 3.80282 23.1209 4.10811 23.9064C4.42391 24.7192 4.84608 25.4084 5.53302 26.0951C6.2196 26.7825 6.90889 27.2056 7.72098 27.5212C8.50714 27.8267 9.4051 28.0349 10.7202 28.0952C12.0381 28.1551 12.4589 28.1698 15.8142 28.1698C19.1699 28.1698 19.5898 28.1551 20.9076 28.0952C22.2229 28.0349 23.1217 27.8267 23.9079 27.5212C24.7202 27.2056 25.4085 26.7825 26.095 26.0951C26.7823 25.4084 27.2043 24.7192 27.521 23.9068C27.8247 23.1209 28.0332 22.2228 28.095 20.908C28.1542 19.5902 28.1696 19.1701 28.1696 15.8146C28.1696 12.4591 28.1542 12.038 28.095 10.7201C28.0332 9.4048 27.8247 8.50708 27.521 7.72154C27.2043 6.90882 26.7823 6.21953 26.095 5.53272C25.4078 4.84553 24.7205 4.42335 23.9071 4.10818C23.1195 3.80251 22.2211 3.59421 20.9058 3.53404C19.5879 3.47411 19.1683 3.45941 15.8118 3.45941H15.8157ZM14.7073 5.68592C15.0363 5.68543 15.4034 5.68592 15.8157 5.68592C19.1146 5.68592 19.5055 5.69778 20.8082 5.75696C22.0128 5.81206 22.6667 6.01333 23.1022 6.18247C23.6788 6.40634 24.0898 6.67408 24.522 7.10663C24.9545 7.53906 25.2221 7.95085 25.4466 8.52746C25.6157 8.96236 25.8172 9.61619 25.8721 10.8208C25.9312 12.1233 25.9441 12.5144 25.9441 15.8118C25.9441 19.1091 25.9312 19.5004 25.8721 20.8027C25.817 22.0073 25.6157 22.6612 25.4466 23.0962C25.2227 23.6728 24.9545 24.0834 24.522 24.5155C24.0896 24.948 23.679 25.2156 23.1022 25.4396C22.6672 25.6095 22.0128 25.8102 20.8082 25.8653C19.5057 25.9245 19.1146 25.9374 15.8157 25.9374C12.5166 25.9374 12.1256 25.9245 10.8232 25.8653C9.6186 25.8097 8.96477 25.6085 8.52888 25.4393C7.95239 25.2153 7.54048 24.9477 7.10805 24.5153C6.67562 24.0829 6.40801 23.6721 6.18352 23.0952C6.01438 22.6602 5.81287 22.0064 5.75801 20.8017C5.69883 19.4993 5.68697 19.1081 5.68697 15.8087C5.68697 12.5094 5.69883 12.1202 5.75801 10.8177C5.81311 9.6131 6.01438 8.95927 6.18352 8.52376C6.40752 7.94714 6.67562 7.53535 7.10817 7.10292C7.5406 6.6705 7.95239 6.40276 8.52901 6.17839C8.96452 6.00851 9.6186 5.80774 10.8232 5.75239C11.963 5.70087 12.4047 5.68542 14.7073 5.68283V5.68592ZM22.4108 7.73736C21.5923 7.73736 20.9282 8.40082 20.9282 9.21947C20.9282 10.038 21.5923 10.7021 22.4108 10.7021C23.2293 10.7021 23.8934 10.038 23.8934 9.21947C23.8934 8.40095 23.2293 7.73686 22.4108 7.73686V7.73736ZM15.8157 9.46966C12.3118 9.46966 9.47083 12.3106 9.47083 15.8146C9.47083 19.3186 12.3118 22.1582 15.8157 22.1582C19.3197 22.1582 22.1596 19.3186 22.1596 15.8146C22.1596 12.3107 19.3194 9.46966 15.8154 9.46966H15.8157ZM15.8157 11.6962C18.0901 11.6962 19.9341 13.5399 19.9341 15.8146C19.9341 18.0891 18.0901 19.933 15.8157 19.933C13.5411 19.933 11.6973 18.0891 11.6973 15.8146C11.6973 13.5399 13.5411 11.6962 15.8157 11.6962Z" fill="white"/>
</g>
</g>
<defs>
<radialGradient id="paint0_radial_66_209" cx="0" cy="0" r="1" gradientUnits="userSpaceOnUse" gradientTransform="translate(8.40145 34.065) rotate(-90) scale(31.3467 29.1549)">
<stop stop-color="#FFDD55"/>
<stop offset="0.1" stop-color="#FFDD55"/>
<stop offset="0.5" stop-color="#FF543E"/>
<stop offset="1" stop-color="#C837AB"/>
</radialGradient>
<clipPath id="clip0_66_209">
<rect width="31.629" height="31.629" fill="white"/>
</clipPath>
</defs>
</svg>
