<svg width="34" height="32" viewBox="0 0 34 32" fill="none" xmlns="http://www.w3.org/2000/svg">
<path id="Vector" d="M26.3309 13.0431C26.709 12.9485 27.0687 12.6949 27.4396 12.6877C28.0111 12.6733 28.6568 12.6675 29.1434 12.912C29.988 13.3367 30.055 14.2626 29.2828 14.826C28.6644 15.2727 27.919 15.5677 27.1974 15.8469C25.5914 16.472 25.3778 16.9426 26.1897 18.4755C27.5356 21.015 29.42 22.9051 32.3031 23.6049C32.6016 23.6761 33.0811 24.008 33.0663 24.1827C33.0337 24.5799 32.8402 25.1635 32.5417 25.3018C31.5721 25.7593 30.5447 26.1475 29.5013 26.3736C28.8503 26.5087 28.6058 26.751 28.4687 27.3689C28.1755 28.6721 27.9186 28.8343 26.6652 28.5812C24.6717 28.1763 22.9192 28.5249 21.2207 29.7606C17.7933 32.2596 15.2391 32.2488 11.8189 29.7462C10.1513 28.5213 8.42372 28.1786 6.4598 28.5852C5.14293 28.8568 4.91682 28.6965 4.60224 27.3459C4.4722 26.7938 4.26754 26.5092 3.62899 26.3871C2.62886 26.1943 1.65667 25.8758 0.735169 25.4391C0.366069 25.268 0.0733797 24.6772 0.000989525 24.2417C-0.0280559 24.0629 0.589048 23.6531 0.966639 23.5473C4.07048 22.6925 5.96067 20.5525 7.23197 17.7158C7.53225 17.0448 7.27889 16.5692 6.72747 16.2576C6.23548 15.9842 5.67826 15.8293 5.15365 15.6086C4.82254 15.4681 4.48427 15.3281 4.18041 15.1385C3.56196 14.7539 3.04272 14.2761 3.40065 13.4488C3.692 12.7688 4.65228 12.4081 5.40836 12.6522C5.83689 12.7891 6.25649 12.9674 6.69261 13.0642C7.26414 13.1881 7.58632 13.0241 7.56442 12.3185C7.51393 10.7161 7.42322 9.10121 7.55191 7.50611C7.82315 4.13575 9.77858 1.91152 12.7881 0.72847C17.1383 -0.974271 22.3329 0.311003 24.6789 4.55277C25.502 6.04025 25.6267 7.64977 25.6955 9.29216C25.6302 10.3221 25.578 11.3502 25.4966 12.3747C25.4466 13.0431 25.7938 13.1777 26.3309 13.0431Z" fill="black"/>
</svg>
